<svg width="375" height="46" viewBox="0 0 375 46" fill="none" xmlns="http://www.w3.org/2000/svg">
<path d="M28.7764 0.257324V3.27197H7.52002V17.1455H28.1304V20.1602H7.52002V42.9854H28.7764V46H0.783203V0.257324H28.7764ZM50.4806 0.257324C53.0851 0.257324 55.3307 0.493164 57.2174 0.964844C59.1246 1.41602 60.7345 2.021 62.047 2.77979C63.38 3.53857 64.4464 4.41016 65.2462 5.39453C66.0665 6.37891 66.692 7.39404 67.1227 8.43994C67.5739 9.48584 67.8712 10.5317 68.0148 11.5776C68.1788 12.603 68.2609 13.5566 68.2609 14.4385C68.2609 15.5664 68.0763 16.8276 67.7072 18.2222C67.3585 19.6167 66.7125 20.9702 65.7692 22.2827C64.8463 23.5952 63.5748 24.7847 61.9547 25.8511C60.3346 26.897 58.2736 27.6455 55.7716 28.0967L68.9992 46H60.755L47.8351 28.5581H42.8517V46H36.1149V0.257324H50.4806ZM42.8517 3.27197V25.5127H46.6969C48.8913 25.5127 50.8703 25.3179 52.6339 24.9282C54.4181 24.5181 55.9357 23.8721 57.1867 22.9902C58.4581 22.0879 59.4323 20.9292 60.109 19.5142C60.7858 18.0786 61.1242 16.3457 61.1242 14.3154C61.1242 12.0186 60.714 10.1523 59.8937 8.7168C59.0734 7.26074 57.9865 6.13281 56.6329 5.33301C55.2999 4.5332 53.7721 3.98975 52.0495 3.70264C50.3268 3.41553 48.5631 3.27197 46.7584 3.27197H42.8517ZM110.391 46H103.285L100.762 40.063H75.7532L73.2923 46H69.5701L86.3352 6.13281L83.8743 0.257324H91.0725L110.391 46ZM77.0144 37.0483H99.5013L88.1502 10.4702L77.0144 37.0483ZM148.324 18.6528L162.628 2.16455V0.257324H169.365V46H162.628V6.87109L146.478 25.5127L130.42 6.80957V46H127.283V3.14893L124.822 0.257324H132.697L148.324 18.6528ZM214.11 46H207.004L204.481 40.063H179.472L177.011 46H173.289L190.054 6.13281L187.593 0.257324H194.791L214.11 46ZM180.733 37.0483H203.22L191.869 10.4702L180.733 37.0483ZM250.549 23.2056C250.549 20.4165 250.231 17.9863 249.595 15.915C248.959 13.8438 248.098 12.0698 247.011 10.5933C245.924 9.1167 244.653 7.90674 243.197 6.96338C241.741 5.99951 240.202 5.25098 238.582 4.71777C236.962 4.16406 235.291 3.78467 233.568 3.57959C231.866 3.37451 230.205 3.27197 228.585 3.27197H224.74V42.9854H228.585C230.205 42.9854 231.866 42.8828 233.568 42.6777C235.291 42.4727 236.962 42.1035 238.582 41.5703C240.202 41.0166 241.741 40.2681 243.197 39.3247C244.653 38.3813 245.924 37.1816 247.011 35.7256C248.098 34.249 248.959 32.4854 249.595 30.4346C250.231 28.3838 250.549 25.9741 250.549 23.2056ZM257.685 23.0825C257.685 26.2817 257.111 29.2759 255.963 32.0649C254.835 34.8335 253.153 37.2534 250.918 39.3247C248.682 41.396 245.904 43.0264 242.581 44.2158C239.28 45.4053 235.455 46 231.107 46H218.003V0.257324H231.107C235.455 0.257324 239.28 0.852051 242.581 2.0415C245.904 3.23096 248.682 4.86133 250.918 6.93262C253.153 8.9834 254.835 11.4033 255.963 14.1924C257.111 16.9609 257.685 19.9243 257.685 23.0825ZM292.402 0.257324V3.27197H271.145V17.1455H291.756V20.1602H271.145V42.9854H292.402V46H264.409V0.257324H292.402ZM314.106 0.257324C316.711 0.257324 318.956 0.493164 320.843 0.964844C322.75 1.41602 324.36 2.021 325.672 2.77979C327.005 3.53857 328.072 4.41016 328.872 5.39453C329.692 6.37891 330.318 7.39404 330.748 8.43994C331.199 9.48584 331.497 10.5317 331.64 11.5776C331.804 12.603 331.886 13.5566 331.886 14.4385C331.886 15.5664 331.702 16.8276 331.333 18.2222C330.984 19.6167 330.338 20.9702 329.395 22.2827C328.472 23.5952 327.2 24.7847 325.58 25.8511C323.96 26.897 321.899 27.6455 319.397 28.0967L332.625 46H324.38L311.461 28.5581H306.477V46H299.74V0.257324H314.106ZM306.477 3.27197V25.5127H310.322C312.517 25.5127 314.496 25.3179 316.259 24.9282C318.044 24.5181 319.561 23.8721 320.812 22.9902C322.084 22.0879 323.058 20.9292 323.734 19.5142C324.411 18.0786 324.75 16.3457 324.75 14.3154C324.75 12.0186 324.339 10.1523 323.519 8.7168C322.699 7.26074 321.612 6.13281 320.258 5.33301C318.925 4.5332 317.398 3.98975 315.675 3.70264C313.952 3.41553 312.189 3.27197 310.384 3.27197H306.477ZM374.016 46H366.91L364.388 40.063H339.379L336.918 46H333.196L349.961 6.13281L347.5 0.257324H354.698L374.016 46ZM340.64 37.0483H363.127L351.776 10.4702L340.64 37.0483Z" fill="black"/>
</svg>
